:SAMPLES-PER-SECOND 24
:FULLY-SPECIFIED
:DEGREES
293
root  9.05298 41.9274 34.7538 2.54517 27.4771 -7.53644
RightUpLeg  -20.1422 -8.15818 1.71385
RightLeg  37.1232 -7.12448 -6.01403
RightFoot  8.1515 -1.11771 6.82639
RightToes  -2.08645e-008 3.77894e-005 6.81332e-007
Spine  1.93013 -3.9706 -1.33609
Spine1  1.47176 -5.74145 8.68897
HEad  -29.3945 -5.52616 6.76984
LeftShoulder1  6.68322 -12.68 -35.2705
LeftArm  2.66739 22.4186 -25.7166
LeftForeArm  165.441 -65.5938 -157.912
LeftHand  -0.491792 -1.60518 8.33486
RightShoulder  3.80169 6.64517 31.5675
RightArm  19.8146 -27.2386 28.8029
RightForeArm  126.816 79.1135 117.67
RightHand  -0.471495 6.34162 -4.99587
LeftUpLeg  -5.19698 0.942706 1.88251
LeftLeg  12.8151 0.771917 0.0994006
LeftFoot  3.50716 0.819254 -6.52817
LeftToes  1.24767e-006 1.47042e-008 1.32732e-009
294
root  8.98698 41.2608 33.7769 3.19971 18.8527 -7.38528
RightUpLeg  -19.9312 -6.98268 0.767367
RightLeg  47.0534 -6.84371 -8.14555
RightFoot  7.29972 -1.03782 6.62393
RightToes  -2.08645e-008 3.77894e-005 6.81332e-007
Spine  2.01059 -3.02598 0.431427
Spine1  0.73651 -4.55658 8.35044
HEad  -28.5395 -2.46455 6.96859
LeftShoulder1  6.15846 -12.2172 -33.1669
LeftArm  2.19162 21.1831 -27.3015
LeftForeArm  166.085 -64.1263 -159.324
LeftHand  -0.443462 -1.64715 7.48724
RightShoulder  3.61085 6.47324 30.2821
RightArm  20.3049 -26.3747 28.3905
RightForeArm  134.717 78.0329 126.283
RightHand  -0.479924 6.28455 -5.10314
LeftUpLeg  -5.61133 -7.90238 2.49684
LeftLeg  17.5545 -6.50869 -1.93806
LeftFoot  -2.47155 0.424251 -5.22716
LeftToes  1.24767e-006 1.47042e-008 1.32732e-009
295
root  8.89785 40.3794 32.8221 4.2998 9.64331 -5.93314
RightUpLeg  -19.6394 -4.65959 -2.72884
RightLeg  54.4468 -7.12946 -10.9823
RightFoot  6.54105 -0.867371 5.79358
RightToes  -2.08645e-008 3.77894e-005 6.81332e-007
Spine  1.41084 -1.81657 -0.0845269
Spine1  1.82347 -3.30646 7.77521
HEad  -29.8282 0.279565 8.15282
LeftShoulder1  5.81955 -11.7497 -32.1546
LeftArm  1.59808 17.2209 -26.2414
LeftForeArm  167.151 -62.7619 -160.563
LeftHand  -0.465476 -1.21634 8.33142
RightShoulder  3.52217 6.33751 29.8753
RightArm  18.9248 -23.3893 28.9569
RightForeArm  133.72 78.1504 125.448
RightHand  -0.637251 6.77441 -6.41391
LeftUpLeg  -6.98824 -8.93994 0.442672
LeftLeg  20.6002 -4.92843 -1.71989
LeftFoot  -7.6439 0.0937748 -1.48469
LeftToes  1.24767e-006 1.47042e-008 1.32732e-009
296
root  8.79874 39.6806 31.8786 4.59204 1.03931 -4.39944
RightUpLeg  -17.9582 -3.29503 -7.15977
RightLeg  57.0409 -7.76307 -13.0851
RightFoot  5.21891 -0.60691 4.4143
RightToes  -2.08645e-008 3.77894e-005 6.81332e-007
Spine  0.409188 -1.10563 -0.560603
Spine1  5.14718 -2.55918 6.22565
HEad  -32.6494 2.98082 8.94179
LeftShoulder1  6.15067 -11.9221 -33.8621
LeftArm  -0.246928 12.1754 -21.2902
LeftForeArm  167.8 -62.9254 -160.492
LeftHand  -0.556639 -0.693139 10.7346
RightShoulder  3.70016 6.44683 31.2896
RightArm  15.0442 -19.3217 30.794
RightForeArm  120.185 79.8891 108.91
RightHand  -0.772541 7.17805 -7.47294
LeftUpLeg  -8.7016 -4.52248 -2.74317
LeftLeg  22.2557 2.52026 1.46871
LeftFoot  -10.4619 0.0462932 1.85621
LeftToes  1.24767e-006 1.47042e-008 1.32732e-009
297
root  8.731 39.3436 31.0807 4.23853 -6.47571 -4.20602
RightUpLeg  -14.5271 -3.8737 -10.4594
RightLeg  54.1232 -9.30855 -13.8886
RightFoot  4.28946 -0.554699 4.26163
RightToes  -2.08645e-008 3.77894e-005 6.81332e-007
Spine  -0.242247 -0.916509 0.772697
Spine1  7.79375 -2.34678 5.24651
HEad  -33.7228 5.73161 8.29651
LeftShoulder1  6.68858 -12.4212 -35.9627
LeftArm  -2.34598 11.2461 -19.4365
LeftForeArm  165.536 -65.5447 -157.935
LeftHand  -0.632749 -0.713197 12.1549
RightShoulder  3.92165 6.62755 32.8245
RightArm  10.9072 -18.87 32.9191
RightForeArm  110.214 80.4633 97.0533
RightHand  -0.750398 7.39379 -7.15456
LeftUpLeg  -9.75045 -1.05421 -3.80535
LeftLeg  23.5604 7.56907 3.93208
LeftFoot  -12.1034 0.0819295 2.11888
LeftToes  1.24767e-006 1.47042e-008 1.32732e-009
298
root  8.57722 39.5687 30.4906 4.34814 -14.0318 -4.64563
RightUpLeg  -10.6067 -4.79032 -12.6238
RightLeg  46.0798 -11.9524 -13.2252
RightFoot  5.43722 -0.752473 5.35399
RightToes  -2.08645e-008 3.77894e-005 6.81332e-007
Spine  -1.14545 -0.748489 1.76901
Spine1  8.77845 -2.5365 6.22989
HEad  -31.3621 9.13734 6.87206
LeftShoulder1  6.86278 -12.5854 -36.5989
LeftArm  -2.9699 15.5838 -24.1565
LeftForeArm  160.352 -67.3476 -155.489
LeftHand  -0.636665 -0.422845 12.8195
RightShoulder  3.96859 6.65086 33.197
RightArm  9.7997 -22.4148 33.622
RightForeArm  120.392 79.757 110.199
RightHand  -0.617048 6.83414 -6.19144
LeftUpLeg  -9.76267 1.57434 -2.975
LeftLeg  22.7508 9.82687 4.82224
LeftFoot  -10.7305 0.064269 -0.243882
LeftToes  1.24767e-006 1.47042e-008 1.32732e-009
299
root  8.19451 40.2834 29.9794 5.2356 -21.7296 -5.09396
RightUpLeg  -7.5037 -5.44421 -13.9227
RightLeg  35.5496 -12.3731 -9.58689
RightFoot  7.48062 -1.15642 7.27853
RightToes  -2.08645e-008 3.77894e-005 6.81332e-007
Spine  -3.04105 -0.796914 1.81501
Spine1  9.44969 -3.12238 7.87843
HEad  -27.0842 13.3804 6.10149
LeftShoulder1  6.95511 -12.6372 -37.0204
LeftArm  -2.87627 21.5246 -30.3745
LeftForeArm  157.651 -66.6588 -155.932
LeftHand  -0.638278 -0.179971 13.3865
RightShoulder  3.97375 6.63645 33.303
RightArm  11.9493 -26.005 31.9519
RightForeArm  133.85 78.153 125.471
RightHand  -0.486821 6.7525 -4.99225
LeftUpLeg  -9.0601 6.36381 -1.50602
LeftLeg  19.0635 11.2184 4.60297
LeftFoot  -5.91261 0.174187 -2.92641
LeftToes  1.24767e-006 1.47042e-008 1.32732e-009
300
root  7.59889 41.1628 29.4048 6.85132 -28.7686 -5.87888
RightUpLeg  -5.81925 -6.36433 -14.1842
RightLeg  27.0332 -8.33638 -4.81185
RightFoot  9.02895 -1.9262 11.04
RightToes  -2.08645e-008 3.77894e-005 6.81332e-007
Spine  -5.46266 -1.11893 2.43538
Spine1  10.0587 -3.7698 8.45923
HEad  -22.8881 17.3228 6.37239
LeftShoulder1  7.02445 -12.6675 -37.3574
LeftArm  -2.48683 25.7892 -35.2334
LeftForeArm  160.044 -66.121 -156.781
LeftHand  -0.627642 -0.987139 11.5719
RightShoulder  3.99997 6.65398 33.493
RightArm  14.7103 -28.4903 28.9538
RightForeArm  143.678 76.8209 133.684
RightHand  -0.321152 7.67467 -3.21617
LeftUpLeg  -7.92888 10.1598 1.1089
LeftLeg  14.2757 12.6774 2.89403
LeftFoot  0.0215066 0.644322 -6.43678
LeftToes  1.24767e-006 1.47042e-008 1.32732e-009
301
root  6.90324 41.8401 28.6389 8.57349 -34.838 -6.74042
RightUpLeg  -5.43768 -7.39663 -13.7432
RightLeg  23.1629 -4.41449 -2.26737
RightFoot  9.9576 -2.5196 13.6977
RightToes  -2.08645e-008 3.77894e-005 6.81332e-007
Spine  -6.90258 -1.30539 3.24579
Spine1  9.9087 -4.06021 8.45359
HEad  -19.9056 19.715 7.37077
LeftShoulder1  6.86533 -12.5205 -36.7809
LeftArm  -0.634365 26.5297 -38.5184
LeftForeArm  162.367 -67.8243 -155.159
LeftHand  -0.525279 -1.87244 8.57633
RightShoulder  3.97641 6.64596 33.2926
RightArm  16.1862 -30.7257 26.4861
RightForeArm  147.903 75.7484 138.142
RightHand  -0.158766 8.16495 -1.73085
LeftUpLeg  -6.90093 10.3324 4.36933
LeftLeg  10.5289 16.0151 0.872673
LeftFoot  5.19396 1.48116 -10.3798
LeftToes  1.24767e-006 1.47042e-008 1.32732e-009
